<svg xmlns="http://www.w3.org/2000/svg" xmlns:svg="http://www.w3.org/2000/svg" id="svg11300" width="192" height="152" version="1.0" style="display:inline;enable-background:new" viewBox="0 0 192 152"><title id="title4162">Adwaita Icon Template</title><defs id="defs3"><clipPath id="clipPath19267-3-8" clipPathUnits="userSpaceOnUse"><rect style="fill:#f6f5f4;stroke-width:.377953;stroke-linecap:round;stroke-linejoin:round" id="rect19269-6-9" width="104" height="104" x="70.901" y="159.394" clip-path="none" rx="8" ry="8" transform="rotate(15)"/></clipPath><filter style="color-interpolation-filters:sRGB" id="filter19261-7-6" width="1.134" height="1.134" x="-.067" y="-.067"><feGaussianBlur id="feGaussianBlur19263-5-4" stdDeviation="2.08"/></filter></defs><metadata id="metadata4"/><g id="layer1" style="display:inline" transform="translate(8,-156)"><g id="layer4" style="display:inline"><rect id="hicolor" width="128" height="128" x="0" y="172" style="display:inline;overflow:visible;visibility:visible;fill:#f0f0f0;fill-opacity:0;fill-rule:nonzero;stroke:none;stroke-width:.5;marker:none;enable-background:accumulate"/><rect style="display:inline;overflow:visible;visibility:visible;fill:#f0f0f0;fill-opacity:0;fill-rule:nonzero;stroke:none;stroke-width:.5;marker:none;enable-background:accumulate" id="symbolic" width="16" height="16" x="160" y="172"/></g><g id="layer2" style="display:inline"><rect style="display:inline;overflow:visible;visibility:visible;fill:#f0f0f0;fill-opacity:1;fill-rule:nonzero;stroke:none;stroke-width:.5;marker:none;enable-background:accumulate" id="128" width="128" height="128" x="0" y="172"/><rect id="16" width="16" height="16" x="160" y="172" style="display:inline;overflow:visible;visibility:visible;fill:#f0f0f0;fill-opacity:1;fill-rule:nonzero;stroke:none;stroke-width:.5;marker:none;enable-background:accumulate"/><text xml:space="preserve" style="font-style:normal;font-variant:normal;font-weight:700;font-stretch:normal;font-size:4px;line-height:125%;font-family:Cantarell;-inkscape-font-specification:'Cantarell, Bold';text-align:start;writing-mode:lr-tb;text-anchor:start;display:inline;fill:#000;fill-opacity:1;stroke:none;stroke-width:.332649;enable-background:new" id="text863" x="0" y="167"><tspan style="font-size:4px;stroke-width:.332649" id="tspan861" x="0" y="167">Hicolor</tspan></text><text id="text867" x="160" y="167" style="font-style:normal;font-variant:normal;font-weight:700;font-stretch:normal;font-size:4px;line-height:125%;font-family:Cantarell;-inkscape-font-specification:'Cantarell, Bold';text-align:start;writing-mode:lr-tb;text-anchor:start;display:inline;fill:#000;fill-opacity:1;stroke:none;stroke-width:.332649;enable-background:new" xml:space="preserve"><tspan id="tspan865" x="160" y="167" style="font-size:4px;stroke-width:.332649">Symbolic</tspan></text></g><g id="layer9" style="display:inline"><g id="g14"><rect style="display:inline;fill:#e6d982;fill-opacity:1;stroke-width:.377953;stroke-linecap:round;stroke-linejoin:round;enable-background:new" id="rect1" width="104" height="104" x="-51.262" y="-296.523" rx="8" ry="8" transform="matrix(0.96592583,-0.25881905,-0.25881905,-0.96592583,0,0)"/><rect style="display:inline;fill:#000;fill-opacity:.13;stroke:#000;stroke-width:4;stroke-linecap:round;stroke-linejoin:round;stroke-opacity:.13;filter:url(#filter19261-7-6);enable-background:new" id="rect2" width="104" height="104" x="12" y="184" clip-path="url(#clipPath19267-3-8)" rx="8" ry="8" transform="matrix(1,0,0,-1,0,472.00049)"/><rect style="display:inline;fill:#fbf598;fill-opacity:1;stroke-width:.377953;stroke-linecap:round;stroke-linejoin:round;enable-background:new" id="rect3" width="104" height="104" x="12" y="184" rx="8" ry="8"/><rect style="fill:#000;fill-opacity:.15;stroke:none;stroke-width:2;stroke-linecap:square;stroke-linejoin:round;stroke-opacity:1" id="rect4" width="104" height="2" x="12" y="196"/><rect style="fill:#000;fill-opacity:.15;stroke:none;stroke-width:2;stroke-linecap:square;stroke-linejoin:round;stroke-opacity:1" id="rect6" width="104" height="2" x="12" y="212"/><rect style="fill:#000;fill-opacity:.15;stroke:none;stroke-width:2;stroke-linecap:square;stroke-linejoin:round;stroke-opacity:1" id="rect7" width="104" height="2" x="12" y="228"/><rect style="fill:#000;fill-opacity:.15;stroke:none;stroke-width:2;stroke-linecap:square;stroke-linejoin:round;stroke-opacity:1" id="rect8" width="104" height="2" x="12" y="244"/><rect style="fill:#000;fill-opacity:.15;stroke:none;stroke-width:2;stroke-linecap:square;stroke-linejoin:round;stroke-opacity:1" id="rect9" width="104" height="2" x="12" y="260"/><rect style="fill:#000;fill-opacity:.15;stroke:none;stroke-width:2;stroke-linecap:square;stroke-linejoin:round;stroke-opacity:1" id="rect10" width="104" height="2" x="12" y="276"/><rect style="fill:#000;fill-opacity:.15;stroke:none;stroke-width:2.00001;stroke-linecap:square;stroke-linejoin:round;stroke-opacity:1" id="rect14" width="104" height="4" x="184" y="-32" transform="rotate(90)"/></g><path style="display:inline;fill:none;stroke:#5f5f92;stroke-width:6;stroke-linecap:round;stroke-linejoin:round;stroke-miterlimit:4;stroke-dasharray:none;stroke-opacity:1;enable-background:new" id="path21" d="m 28.999989,207 6,6 11,-12"/><rect style="display:inline;fill:#5f5f92;fill-opacity:1;stroke:none;stroke-width:8;stroke-linecap:square;stroke-linejoin:round;stroke-opacity:1;enable-background:new" id="rect24" width="41" height="6" x="55" y="200" rx="3" ry="3"/><rect style="display:inline;fill:#5f5f92;fill-opacity:1;stroke:none;stroke-width:8.00002;stroke-linecap:square;stroke-linejoin:round;stroke-opacity:1;enable-background:new" id="rect25" width="31" height="6" x="55" y="210" rx="3" ry="3"/><path style="display:inline;fill:none;stroke:#5f5f92;stroke-width:6;stroke-linecap:round;stroke-linejoin:round;stroke-miterlimit:4;stroke-dasharray:none;stroke-opacity:1;enable-background:new" id="path29" d="m 28.999989,235 6,6 11,-12"/><rect style="display:inline;fill:#5f5f92;fill-opacity:1;stroke:none;stroke-width:8;stroke-linecap:square;stroke-linejoin:round;stroke-opacity:1;enable-background:new" id="rect29" width="45" height="6" x="55" y="228" rx="3" ry="3"/><rect style="display:inline;fill:#5f5f92;fill-opacity:1;stroke:none;stroke-width:8.00003;stroke-linecap:square;stroke-linejoin:round;stroke-opacity:1;enable-background:new" id="rect30" width="26" height="6" x="55" y="238" rx="3" ry="3"/><path style="display:inline;fill:none;stroke:#5f5f92;stroke-width:6;stroke-linecap:round;stroke-linejoin:round;stroke-miterlimit:4;stroke-dasharray:none;stroke-opacity:1;enable-background:new" id="path30" d="m 28.999989,263 6,6 11,-12"/><rect style="display:inline;fill:#5f5f92;fill-opacity:1;stroke:none;stroke-width:8;stroke-linecap:square;stroke-linejoin:round;stroke-opacity:1;enable-background:new" id="rect35" width="45" height="6" x="55" y="256" rx="3" ry="3"/><rect style="display:inline;fill:#5f5f92;fill-opacity:1;stroke:none;stroke-width:8.00002;stroke-linecap:square;stroke-linejoin:round;stroke-opacity:1;enable-background:new" id="rect36" width="37" height="6" x="55" y="266" rx="3" ry="3"/><path style="color:#000;fill:#000;stroke-linecap:square;stroke-linejoin:round;-inkscape-stroke:none" id="path62" d="m 164,172 c -2.1987,0 -4,1.8013 -4,4 v 6 c 0,2.1987 1.8013,4 4,4 h 8 c 2.1987,0 4,-1.8013 4,-4 v -6 c 0,-2.1987 -1.8013,-4 -4,-4 z m 0,2 h 8 c 1.12529,0 2,0.87471 2,2 v 6 c 0,1.12529 -0.87471,2 -2,2 h -8 c -1.12529,0 -2,-0.87471 -2,-2 v -6 c 0,-1.12529 0.87471,-2 2,-2 z"/><path style="color:#000;fill:#000;stroke-linecap:round;stroke-linejoin:round;-inkscape-stroke:none" id="path63" d="m 171,176 a 1,1 0 0 0 -0.70703,0.29297 L 167,179.58594 l -1.29297,-1.29297 a 1,1 0 0 0 -1.41406,0 1,1 0 0 0 0,1.41406 l 2,2 a 1.0001,1.0001 0 0 0 1.41406,0 l 4,-4 a 1,1 0 0 0 0,-1.41406 A 1,1 0 0 0 171,176 Z"/><path id="path64" style="color:#000;fill:#000;stroke-linecap:square;stroke-linejoin:round;-inkscape-stroke:none" d="m 160,183 v 1 c 0,2.1987 1.8013,4 4,4 h 8 c 2.1987,0 4,-1.8013 4,-4 v -1 c 0,2.1987 -1.8013,4 -4,4 h -8 c -2.1987,0 -4,-1.8013 -4,-4 z"/></g><g id="layer3" style="display:inline"><circle id="circle2892" cx="64" cy="236" r="59.504" style="display:inline;opacity:.1;vector-effect:none;fill:none;fill-opacity:1;stroke:#000;stroke-width:.99;stroke-linecap:butt;stroke-linejoin:miter;stroke-miterlimit:4;stroke-dasharray:.99,.99;stroke-dashoffset:0;stroke-opacity:1;marker:none;marker-start:none;marker-mid:none;marker-end:none;paint-order:normal;enable-background:new"/><rect id="rect2894" width="87.01" height="111.01" x="20.495" y="180.495" rx="8.701" ry="7.929" style="display:inline;opacity:.1;vector-effect:none;fill:none;fill-opacity:1;stroke:#000;stroke-width:.99;stroke-linecap:butt;stroke-linejoin:miter;stroke-miterlimit:4;stroke-dasharray:.99,.99;stroke-dashoffset:0;stroke-opacity:1;marker:none;marker-start:none;marker-mid:none;marker-end:none;paint-order:normal;enable-background:new"/><rect id="rect2896" width="103.01" height="103.01" x="12.495" y="184.495" rx="7.924" ry="7.924" style="display:inline;opacity:.1;vector-effect:none;fill:none;fill-opacity:1;stroke:#000;stroke-width:.99;stroke-linecap:butt;stroke-linejoin:miter;stroke-miterlimit:4;stroke-dasharray:.99,.99;stroke-dashoffset:0;stroke-opacity:1;marker:none;marker-start:none;marker-mid:none;marker-end:none;paint-order:normal;enable-background:new"/><rect id="rect2898" width="111.01" height="87.01" x="8.495" y="200.495" rx="7.929" ry="8.701" style="display:inline;opacity:.1;vector-effect:none;fill:none;fill-opacity:1;stroke:#000;stroke-width:.99;stroke-linecap:butt;stroke-linejoin:miter;stroke-miterlimit:4;stroke-dasharray:.99,.99;stroke-dashoffset:0;stroke-opacity:1;marker:none;marker-start:none;marker-mid:none;marker-end:none;paint-order:normal;enable-background:new"/><path id="path2900" d="M 2.6203015e-5,288.99999 H 128.00003" style="display:inline;fill:none;stroke:#62a0ea;stroke-width:2;stroke-linecap:butt;stroke-linejoin:miter;stroke-miterlimit:4;stroke-dasharray:none;stroke-opacity:1;enable-background:new"/></g></g></svg>